<?xml version="1.0" encoding="UTF-8"?>
<svg width="14px" height="14px" viewBox="0 0 14 14" version="1.1" xmlns="http://www.w3.org/2000/svg" xmlns:xlink="http://www.w3.org/1999/xlink">
    <title>Icon/blog-post</title>
    <g id="Icon/blog-post" stroke="none" stroke-width="1" fill="none" fill-rule="evenodd">
        <path d="M9.55068026,1 L7.57912267,2.97518915 C7.57549111,2.97518915 7.57549111,2.97518915 7.57549111,2.97518915 C7.57549111,2.97518915 7.57549111,2.97518915 7.57186048,2.97518915 C6.48623239,4.08986321 5.34614206,4.69621746 3.25839595,4.69621746 L2.873525,4.69621746 L2.80090775,5.07382715 C2.28895545,7.70257153 1.18154266,12.2520419 1.18154266,12.2520419 L1,12.9927378 L1.74069593,12.8148258 C1.74069593,12.8148258 6.35189071,11.7219364 8.92980348,11.1918301 L9.30015098,11.1155822 L9.30015098,10.7379725 C9.30015098,8.6030254 9.92465931,7.54281358 11.0248109,6.4172467 L13,4.44205756 L12.3391826,3.78850232 L10.6944021,5.43328276 L8.56308568,3.3019663 L10.2114977,1.65355523 L9.55068026,1 Z M7.895007,3.94826027 L10.0553704,6.10499207 C9.12223896,7.17972734 8.53040815,8.48320717 8.44326746,10.34947 C6.47897113,10.7597581 4.30771495,11.2680789 3.10590019,11.5512857 L6.2720122,8.38154303 C6.35189071,8.40332774 6.43177015,8.41422056 6.51164866,8.41422056 C7.02360002,8.41422056 7.44114943,7.99667115 7.44114943,7.48471978 C7.44114943,6.97276842 7.02360002,6.55521901 6.51164866,6.55521901 C5.99969729,6.55521901 5.58214788,6.97276842 5.58214788,7.48471978 C5.58214788,7.56459922 5.5930407,7.64447773 5.61482541,7.72435717 L2.45234496,10.8868376 C2.73555176,9.69591475 3.24024187,7.5537064 3.64326783,5.55310098 C5.48048374,5.46959092 6.82027173,4.90317638 7.895007,3.94826027 Z" id="Shape" fill="#000000" fill-rule="nonzero"></path>
    </g>
</svg>