<?xml version="1.0" encoding="UTF-8"?>
<svg width="14px" height="14px" viewBox="0 0 14 14" version="1.1" xmlns="http://www.w3.org/2000/svg" xmlns:xlink="http://www.w3.org/1999/xlink">
    <title>Icon/book-section</title>
    <g id="Icon/book-section" stroke="none" stroke-width="1" fill="none" fill-rule="evenodd">
        <path d="M6.76923077,1 C5.29807692,1 4,1.97716369 4,3.30769231 C4,4.03605815 4.41826923,4.59495169 4.93028892,4.92307692 C5.02403846,4.98076923 5.125,5.03125046 5.222356,5.08173077 C4.61298123,5.39543292 4,6.01923077 4,7 C4,7.73197138 4.42187477,8.29086585 4.9375,8.61538462 C5.44951969,8.93990431 6.05889446,9.11298123 6.63581754,9.28605815 C7.21274062,9.46274062 7.757212,9.632212 8.11057692,9.85576923 C8.46033631,10.0793274 8.61538462,10.2704329 8.61538462,10.6923077 C8.61538462,11.3918274 7.83653846,12.0769231 6.76923077,12.0769231 C5.70192308,12.0769231 4.92307692,11.3918274 4.92307692,10.6923077 L4.92307692,10.2307692 L4,10.2307692 L4,10.6923077 C4,12.0228363 5.29807692,13 6.76923077,13 C8.24038462,13 9.53846154,12.0228363 9.53846154,10.6923077 C9.53846154,9.96033631 9.11658677,9.40144277 8.60096154,9.07692308 C8.507212,9.01562523 8.40625046,8.96875046 8.30528892,8.91826923 C8.91105815,8.60096154 9.51322092,7.98076923 9.51322092,7 C9.51322092,6.27163508 9.09855815,5.71274062 8.58653846,5.38461538 C8.07091323,5.05649015 7.465144,4.88701969 6.89182738,4.71394277 C6.31490431,4.54086585 5.77403846,4.36418246 5.42788462,4.14423077 C5.07812523,3.92427908 4.92307692,3.73317354 4.92307692,3.30769231 C4.92307692,2.60817354 5.70192308,1.92307692 6.76923077,1.92307692 C7.83653846,1.92307692 8.61538462,2.60817354 8.61538462,3.30769231 L8.61538462,3.76923077 L9.53846154,3.76923077 L9.53846154,3.30769231 C9.53846154,1.97716369 8.24038462,1 6.76923077,1 Z M6.70793292,5.62259662 C7.24879785,5.78846154 7.757212,5.95432738 8.08894277,6.16346154 C8.43870215,6.38341323 8.59375046,6.57451969 8.59375046,7 C8.59375046,7.68149015 8.24759662,7.95192308 7.80048123,8.15384615 C7.38581754,8.33774062 6.909856,8.37379785 6.819712,8.37740431 C6.27524062,8.215144 5.76322092,8.04567354 5.42788462,7.83653846 C5.07812523,7.61298123 4.92307692,7.42187477 4.92307692,7 C4.92307692,6.32211538 5.27283631,6.05168246 5.72355815,5.84975938 C6.14182738,5.66586585 6.61057692,5.62980769 6.70793292,5.62259662 Z" id="Shape" fill="#000000" fill-rule="nonzero"></path>
    </g>
</svg>