<?xml version="1.0" encoding="UTF-8"?>
<svg width="14px" height="14px" viewBox="0 0 14 14" version="1.1" xmlns="http://www.w3.org/2000/svg" xmlns:xlink="http://www.w3.org/1999/xlink">
    <title>Icon/book</title>
    <g id="Icon/book" stroke="none" stroke-width="1" fill="none" fill-rule="evenodd">
        <path d="M3.5,1 C2.675781,1 2,1.675781 2,2.5 L2,12 L2.210938,12 C2.429688,12.554688 2.871094,13 3.5,13 L12,13 L12,12 L3.5,12 C3.21875,12 3,11.78125 3,11.5 C3,11.21875 3.21875,11 3.5,11 L12,11 L12,1 L3.5,1 Z M3.5,2 L11,2 L11,10 L3.5,10 C3.324219,10 3.15625,10.039063 3,10.09375 L3,2.5 C3,2.21875 3.21875,2 3.5,2 Z M4,4 L4,5 L10,5 L10,4 L4,4 Z" id="Shape" fill="#000000" fill-rule="nonzero"></path>
    </g>
</svg>