<?xml version="1.0" encoding="UTF-8"?>
<svg width="14px" height="14px" viewBox="0 0 14 14" version="1.1" xmlns="http://www.w3.org/2000/svg" xmlns:xlink="http://www.w3.org/1999/xlink">
    <title>Icon/conference-paper</title>
    <g id="Icon/conference-paper" stroke="none" stroke-width="1" fill="none" fill-rule="evenodd">
        <path d="M6.75,1 C5.652344,1 4.75,1.902344 4.75,3 C4.75,3.535156 4.96875,4.023438 5.3125,4.382813 C4.386719,4.894531 3.75,5.871094 3.75,7 L0,7 L0,8 L1.066406,8 L2.066406,10 L4,10 L4,13 L5,13 L5,10 L9,10 L9,13 L10,13 L10,10 L11.933594,10 L12.933594,8 L14,8 L14,7 L9.75,7 C9.75,5.871094 9.113281,4.894531 8.1875,4.382813 C8.53125,4.023438 8.75,3.535156 8.75,3 C8.75,1.902344 7.847656,1 6.75,1 Z M6.75,2 C7.308594,2 7.75,2.441406 7.75,3 C7.75,3.558594 7.308594,4 6.75,4 C6.191406,4 5.75,3.558594 5.75,3 C5.75,2.441406 6.191406,2 6.75,2 Z M11,3 C10.449219,3 10,3.449219 10,4 C10,4.550781 10.449219,5 11,5 C11.117188,5 11.234375,4.976563 11.34375,4.9375 L12,5.484375 L12,6 L13,6 L13,5.015625 L11.984375,4.171875 C11.996094,4.113281 12,4.058594 12,4 C12,3.449219 11.550781,3 11,3 Z M6.75,5 C7.859375,5 8.75,5.890625 8.75,7 L4.75,7 C4.75,5.890625 5.640625,5 6.75,5 Z M2.183594,8 L11.816406,8 L11.316406,9 L2.683594,9 L2.183594,8 Z" id="Shape" fill="#000000" fill-rule="nonzero"></path>
    </g>
</svg>