<?xml version="1.0" encoding="UTF-8"?>
<svg width="14px" height="14px" viewBox="0 0 14 14" version="1.1" xmlns="http://www.w3.org/2000/svg" xmlns:xlink="http://www.w3.org/1999/xlink">
    <title>Icon/encyclopedia-article</title>
    <g id="Icon/encyclopedia-article" stroke="none" stroke-width="1" fill="none" fill-rule="evenodd">
        <path d="M7.92347459,1 C6.62247113,1 5.32183396,1.4946397 4.33189059,2.48461761 C2.35200403,4.46457335 2.35193485,7.68789916 4.33189059,9.66778571 C6.31184632,11.6476728 9.5351725,11.6477421 11.5150587,9.66778571 C13.4949458,7.68783016 13.4950151,4.46450426 11.5150587,2.48461761 C10.5250805,1.49467433 9.22447806,1 7.92347459,1 Z M3.02586005,1.17858707 C0.324147161,3.87931188 0.325279533,8.27224782 3.02586005,10.9738158 C5.72654505,13.6754893 10.1195131,13.6753923 12.8210888,10.9738158 L12.1680737,10.3208008 C9.81939615,12.6694783 6.02659729,12.6693823 3.67887536,10.3208008 C1.33104898,7.97211551 1.33033411,4.17928451 3.67887536,1.83160239 L3.02586005,1.17858707 Z M7.92347459,1.91638616 C8.2589767,1.91638616 8.59157122,1.97240805 8.91923268,2.0534832 L7.81163215,3.16108373 C7.41917892,2.89171344 7.03190358,2.65857513 6.66434575,2.49002936 C6.50305894,2.41607039 6.34832499,2.36424931 6.19352528,2.31144229 C6.74320545,2.05814609 7.33049182,1.91638616 7.92347459,1.91638616 Z M9.85906946,2.41967687 C10.2165403,2.60946298 10.5603963,2.83599634 10.8620437,3.13763293 C11.1272522,3.40283204 11.3327009,3.70118513 11.5114511,4.01072517 L10.189185,5.33299087 C9.96392596,5.06609445 9.72482765,4.80007573 9.46220981,4.53746676 C9.1633662,4.23863395 8.86044026,3.97223637 8.55664688,3.72209963 L9.85906946,2.41967687 Z M5.35651123,3.05645702 C5.58353678,3.07125035 5.90980056,3.16084248 6.28011294,3.33065127 C6.54746552,3.45324721 6.84094662,3.62894064 7.14418565,3.82853023 L5.6758032,5.29691268 C5.47620309,4.99368066 5.30052952,4.70018839 5.17792425,4.43283996 C5.00810253,4.06253359 4.91853154,3.73626316 4.90372999,3.50923825 C4.88892826,3.28221335 4.93640268,3.1861379 4.9849059,3.13763293 C5.03340885,3.08912814 5.12948596,3.04166295 5.35651123,3.05645702 Z M4.15871527,4.34444842 C4.2116285,4.49974345 4.26309002,4.65524824 4.33730234,4.81707277 C4.50586085,5.18462478 4.73897266,5.57191536 5.0083567,5.96435918 L3.90075617,7.07195971 C3.67621816,6.16450828 3.76135826,5.20561095 4.15871527,4.34444842 Z M7.89821981,4.38052661 C8.20187428,4.62556267 8.50818374,4.88948204 8.80919422,5.19048199 C9.07352192,5.45480054 9.30920873,5.7241603 9.53075769,5.99141784 L7.83869082,7.68348508 C7.57142551,7.46194545 7.30208275,7.2262398 7.03775496,6.96192124 C6.73674458,6.6609213 6.47284617,6.35459272 6.22779958,6.05094684 L7.89821981,4.38052661 Z M11.8992918,4.92891512 C12.1736892,5.87993745 12.1080636,6.89808827 11.688234,7.80795482 C11.6353209,7.65265978 11.5838596,7.49715518 11.5096464,7.33533046 C11.3239452,6.93039622 11.0665752,6.50277122 10.75922,6.06898598 L11.8992918,4.92891512 Z M5.56937261,6.7093739 C5.81951997,7.01315851 6.08589649,7.31610375 6.38473974,7.61493647 C6.64735785,7.87754543 6.91335958,8.11666241 7.18026384,8.34191205 L5.85799814,9.66417812 C5.54853495,9.48546027 5.25005043,9.2799056 4.9849059,9.01477031 C4.68315737,8.71303231 4.45677456,8.36939548 4.26694984,8.01179658 L5.56937261,6.7093739 Z M10.0935775,6.73462859 C10.3300066,7.08112396 10.530345,7.4171624 10.6690247,7.71956327 C10.8388465,8.08986974 10.9284174,8.41613989 10.943219,8.64316498 C10.9580243,8.87018997 10.910542,8.96626533 10.8620437,9.01477031 C10.8135453,9.0632751 10.717464,9.11074056 10.490438,9.09594621 C10.2634121,9.0811527 9.9371489,8.99156075 9.56683634,8.82175196 C9.26443076,8.6830823 8.92840506,8.4827216 8.58190157,8.24630487 L10.0935775,6.73462859 Z M7.91625895,8.91194748 C8.35005491,9.21928722 8.77766274,9.47668605 9.18260344,9.66237341 C9.34389089,9.73633266 9.49862373,9.78815411 9.653424,9.84096103 C8.74362469,10.2602023 7.72510083,10.3284583 6.77438421,10.0538226 L7.91625895,8.91194748 Z" id="Shape" fill="#000000" fill-rule="nonzero"></path>
    </g>
</svg>