<?xml version="1.0" encoding="UTF-8"?>
<svg width="14px" height="14px" viewBox="0 0 14 14" version="1.1" xmlns="http://www.w3.org/2000/svg" xmlns:xlink="http://www.w3.org/1999/xlink">
    <title>Icon/help</title>
    <g id="Icon/help" stroke="none" stroke-width="1" fill="none" fill-rule="evenodd">
        <path d="M7,1 C3.69350985,1 1,3.69350985 1,7 C1,10.3064902 3.69350985,13 7,13 C10.3064902,13 13,10.3064902 13,7 C13,3.69350985 10.3064902,1 7,1 Z M7,1.92307692 C9.80889446,1.92307692 12.0769231,4.19110554 12.0769231,7 C12.0769231,9.80889446 9.80889446,12.0769231 7,12.0769231 C4.19110554,12.0769231 1.92307692,9.80889446 1.92307692,7 C1.92307692,4.19110554 4.19110554,1.92307692 7,1.92307692 Z M7.05408677,3.76923077 C5.93629785,3.83413508 5.02403846,4.77163508 5.02403846,5.91105815 L5.94711538,5.91105815 C5.94711538,5.16105815 6.59615385,4.57331754 7.38942308,4.71033631 C7.95552862,4.80769231 8.402644,5.36298123 8.38461538,5.94711538 C8.37019231,6.45913508 8.07091323,6.78365385 7.63100985,6.97836585 C7.35697138,7.10096154 7.097356,7.21634615 6.87740431,7.44711538 C6.65745169,7.67788462 6.53846154,8.02043292 6.53846154,8.38461538 L7.46153846,8.38461538 C7.46153846,8.17548123 7.49038462,8.14302862 7.54807692,8.08173077 C7.60216369,8.02403846 7.75360554,7.93389446 8.00240431,7.82211538 C8.69110554,7.52283631 9.28245169,6.86298123 9.30769231,5.97596154 C9.340144,4.92668246 8.58653846,3.97836585 7.54447138,3.79807692 C7.37860554,3.77283631 7.21274062,3.76201969 7.05408677,3.76923077 Z M6.53846154,9.30769231 L6.53846154,10.2307692 L7.46153846,10.2307692 L7.46153846,9.30769231 L6.53846154,9.30769231 Z" id="Shape" fill="#000000" fill-rule="nonzero"></path>
    </g>
</svg>