<?xml version="1.0" encoding="UTF-8"?>
<svg width="14px" height="14px" viewBox="0 0 14 14" version="1.1" xmlns="http://www.w3.org/2000/svg" xmlns:xlink="http://www.w3.org/1999/xlink">
    <title>Icon/info</title>
    <g id="Icon/info" stroke="none" stroke-width="1" fill="none" fill-rule="evenodd">
        <path d="M7,1 C3.69350985,1 1,3.69350985 1,7 C1,10.3064902 3.69350985,13 7,13 C10.3064902,13 13,10.3064902 13,7 C13,3.69350985 10.3064902,1 7,1 Z M7,1.92307692 C9.80889446,1.92307692 12.0769231,4.19110554 12.0769231,7 C12.0769231,9.80889446 9.80889446,12.0769231 7,12.0769231 C4.19110554,12.0769231 1.92307692,9.80889446 1.92307692,7 C1.92307692,4.19110554 4.19110554,1.92307692 7,1.92307692 Z M6.53846154,3.76923077 L6.53846154,4.69230769 L7.46153846,4.69230769 L7.46153846,3.76923077 L6.53846154,3.76923077 Z M6.53846154,5.61538462 L6.53846154,10.2307692 L7.46153846,10.2307692 L7.46153846,5.61538462 L6.53846154,5.61538462 Z" id="Shape" fill="#000000" fill-rule="nonzero"></path>
    </g>
</svg>