<?xml version="1.0" encoding="UTF-8"?>
<svg width="14px" height="14px" viewBox="0 0 14 14" version="1.1" xmlns="http://www.w3.org/2000/svg" xmlns:xlink="http://www.w3.org/1999/xlink">
    <title>Icon/paper</title>
    <g id="Icon/paper" stroke="none" stroke-width="1" fill="none" fill-rule="evenodd">
        <path d="M3,1 L3,10 L1,10 L1,11.5 C1,11.912335 1.1453491,12.304342 1.421875,12.580078 C1.6984009,12.855814 2.0900381,13 2.5,13 L10.5,13 C10.909962,13 11.301599,12.855814 11.578125,12.580078 C11.854651,12.304342 12,11.912335 12,11.5 L12,1 L3,1 Z M4,2 L11,2 L11,11.5 C11,11.690665 10.94482,11.79758 10.871094,11.871094 C10.79737,11.944607 10.689038,12 10.5,12 C10.191484,12 10,11.756331 10,11.375 L10,10 L4,10 L4,2 Z M2,11 L9,11 L9,11.375 C9,11.604933 9.144686,11.790671 9.232422,12 L2.5,12 C2.3109619,12 2.2026304,11.944607 2.1289062,11.871094 C2.0551822,11.79758 2,11.690665 2,11.5 L2,11 Z" id="Shape" fill="#000000" fill-rule="nonzero"></path>
    </g>
</svg>