<?xml version="1.0" encoding="UTF-8"?>
<svg width="14px" height="14px" viewBox="0 0 14 14" version="1.1" xmlns="http://www.w3.org/2000/svg" xmlns:xlink="http://www.w3.org/1999/xlink">
    <title>Icon/linking</title>
    <g id="Icon/linking" stroke="none" stroke-width="1" fill="none" fill-rule="evenodd">
        <path d="M3,1 C1.902344,1 1,1.902344 1,3 L1,11 C1,12.097656 1.902344,13 3,13 L11,13 C12.097656,13 13,12.097656 13,11 L13,3 C13,1.902344 12.097656,1 11,1 L3,1 Z M3,2 L11,2 C11.558594,2 12,2.441406 12,3 L12,11 C12,11.558594 11.558594,12 11,12 L3,12 C2.441406,12 2,11.558594 2,11 L2,3 C2,2.441406 2.441406,2 3,2 Z M6,3 L6,4 L9.292969,4 L5.023438,8.273438 L5.726563,8.976563 L10,4.707031 L10,8 L11,8 L11,3 L6,3 Z" id="Shape" fill="#000000" fill-rule="nonzero"></path>
    </g>
</svg>