<?xml version="1.0" encoding="UTF-8"?>
<svg width="14px" height="14px" viewBox="0 0 14 14" version="1.1" xmlns="http://www.w3.org/2000/svg" xmlns:xlink="http://www.w3.org/1999/xlink">
    <title>Icon/manuscript</title>
    <g id="Icon/manuscript" stroke="none" stroke-width="1" fill="none" fill-rule="evenodd">
        <path d="M3.73333333,2 C1.76822893,2 0.2151044,2.98011364 0.2151044,2.98011364 L0,3.11505727 L0,12 L14,12 L14,3.11505727 L13.7848956,2.98011364 C13.7848956,2.98011364 12.2317711,2 10.2666667,2 C8.9177088,2 7.9114588,2.48295455 7,3.26775545 C6.08854213,2.48295455 5.08229213,2 3.73333333,2 Z M3.73333333,2.90909091 C4.96197893,2.90909091 5.71302107,3.26065364 6.53333333,4.02414818 L6.53333333,11.0340909 C5.70208333,10.4552555 4.82343773,10.1818182 3.73333333,10.1818182 C2.55572893,10.1818182 1.5713544,10.5262782 0.933333333,10.8103691 L0.933333333,3.64772727 C1.21041667,3.48792636 2.28958333,2.90909091 3.73333333,2.90909091 Z M10.2666667,2.90909091 C11.7104167,2.90909091 12.7895833,3.48792636 13.0666667,3.64772727 L13.0666667,10.8103691 C12.4286456,10.5262782 11.4442711,10.1818182 10.2666667,10.1818182 C9.17656227,10.1818182 8.29791667,10.4552555 7.46666667,11.0340909 L7.46666667,4.02414818 C8.28697893,3.26065364 9.03802107,2.90909091 10.2666667,2.90909091 Z" id="Shape" fill="#000000" fill-rule="nonzero"></path>
    </g>
</svg>