<?xml version="1.0" encoding="UTF-8"?>
<svg width="14px" height="14px" viewBox="0 0 14 14" version="1.1" xmlns="http://www.w3.org/2000/svg" xmlns:xlink="http://www.w3.org/1999/xlink">
    <title>Icon/newspaper-article</title>
    <g id="Icon/newspaper-article" stroke="none" stroke-width="1" fill="none" fill-rule="evenodd">
        <path d="M1,1 L1,11 C1,12.097656 1.902344,13 3,13 L11,13 C12.097656,13 13,12.097656 13,11 L13,4 L10,4 L10,1 L1,1 Z M2,2 L9,2 L9,11 C9,11.367188 9.109375,11.703125 9.28125,12 L3,12 C2.441406,12 2,11.558594 2,11 L2,2 Z M3,4 L3,5 L8,5 L8,4 L3,4 Z M10,5 L12,5 L12,11 C12,11.558594 11.558594,12 11,12 C10.441406,12 10,11.558594 10,11 L10,5 Z M3,6 L3,7 L5,7 L5,6 L3,6 Z M6,6 L6,7 L8,7 L8,6 L6,6 Z M3,8 L3,9 L5,9 L5,8 L3,8 Z M6,8 L6,9 L8,9 L8,8 L6,8 Z M3,10 L3,11 L5,11 L5,10 L3,10 Z M6,10 L6,11 L8,11 L8,10 L6,10 Z" id="Shape" fill="#000000" fill-rule="nonzero"></path>
    </g>
</svg>