<svg width="16" height="16" viewBox="0 0 16 16" fill="none" xmlns="http://www.w3.org/2000/svg">
<path d="M2.5 2C1.67578 2 1 2.67578 1 3.5V10.5C1 11.3242 1.67578 12 2.5 12H5.77344C5.80469 12.043 5.83203 12.0938 5.86719 12.1289L4 14H5V15L7.21094 12.6953L7.35547 12.8047L7.375 12.8164C7.75781 13.0547 8.25 13.0703 8.625 12.8008L8.76172 12.7031L11 15V14H12L10.1289 12.1289C10.1719 12.0938 10.1992 12.043 10.2344 12H13.5C14.3242 12 15 11.3242 15 10.5V3.5C15 2.67578 14.3242 2 13.5 2H2.5ZM2.5 3H13.5C13.7812 3 14 3.21875 14 3.5V10.5C14 10.7812 13.7812 11 13.5 11H10.5312L10.8086 10.6094L10.8164 10.5977C11.0547 10.2148 11.0703 9.72656 10.8008 9.34766V9.34375L10.5039 8.9375L10.418 8.46875C10.3633 7.98828 9.98047 7.60547 9.50391 7.55469L9.02344 7.48828L8.625 7.19922C8.24609 6.92969 7.75 6.92578 7.375 7.19922V7.20312L6.97266 7.49219L6.46094 7.55859L6.44141 7.5625C6.00391 7.66016 5.66016 8.00781 5.5625 8.44531L5.55469 8.46484L5.49219 8.96875L5.19531 9.35156L5.17969 9.375C4.94531 9.75781 4.92969 10.2461 5.19922 10.625L5.46875 11H2.5C2.21875 11 2 10.7812 2 10.5V3.5C2 3.21875 2.21875 3 2.5 3ZM4 5V6H12V5H4ZM7.95703 8.01172C7.97266 8 8.03125 8.00391 8.04297 8.01172L8.64453 8.44531L9.38672 8.54688H9.39062C9.41406 8.55078 9.42188 8.55469 9.42188 8.57812L9.42578 8.59375L9.5625 9.33594L9.98438 9.92969C9.99609 9.94141 10.0078 10.0039 9.96875 10.0664L9.55469 10.6406L9.45312 11.3867V11.3906C9.44922 11.4141 9.44531 11.4219 9.42188 11.4219L9.40625 11.4258L8.64062 11.5586L8.04688 11.9844C8.03125 11.9961 7.97266 12.0039 7.90625 11.9688L7.36719 11.5547L6.61328 11.4531H6.60938C6.58594 11.4492 6.57812 11.4453 6.57812 11.4219L6.57422 11.4062L6.44141 10.6367L6.01562 10.0469C6.00391 10.0312 5.99609 9.97266 6.03125 9.90625L6.44531 9.36328L6.53906 8.66016C6.55469 8.60156 6.59766 8.55469 6.65625 8.53906L7.35547 8.44531L7.95703 8.01172Z" fill="black"/>
</svg>
