<svg width="16" height="16" viewBox="0 0 16 16" fill="none" xmlns="http://www.w3.org/2000/svg">
<path d="M4.5 2C3.67578 2 3 2.67578 3 3.5V12.5C3 13.3242 3.67578 14 4.5 14H11.5C12.3242 14 13 13.3242 13 12.5V3.5C13 2.67578 12.3242 2 11.5 2H4.5ZM4.5 3H11.5C11.7812 3 12 3.21875 12 3.5V12.5C12 12.7812 11.7812 13 11.5 13H4.5C4.21875 13 4 12.7812 4 12.5V3.5C4 3.21875 4.21875 3 4.5 3ZM8.72656 5.02344L8.02344 5.72656L8.79297 6.5L8.02344 7.27344L8.72656 7.97656L9.5 7.20703L10.2695 7.97656L10.9805 7.27344L10.207 6.5L10.9805 5.72656L10.2695 5.02344L9.5 5.79297L8.72656 5.02344ZM4.875 6V7H7V6H4.875ZM10.6445 8.64844L9.5 9.79297L8.72656 9.02344L8.02344 9.72656L9.5 11.207L11.3555 9.35156L10.6445 8.64844ZM4.875 9V10H7V9H4.875Z" fill="black"/>
</svg>
