<?xml version="1.0" encoding="UTF-8"?>
<svg width="14px" height="14px" viewBox="0 0 14 14" version="1.1" xmlns="http://www.w3.org/2000/svg" xmlns:xlink="http://www.w3.org/1999/xlink">
    <title>Icon/presentation</title>
    <g id="Icon/presentation" stroke="none" stroke-width="1" fill="none" fill-rule="evenodd">
        <path d="M1,1 L1,1.92307692 L13,1.92307692 L13,1 L1,1 Z M1,2.84615385 L1,11.1538462 L6.53846154,11.1538462 L6.53846154,13 L7.46153846,13 L7.46153846,11.1538462 L13,11.1538462 L13,2.84615385 L1,2.84615385 Z M1.92307692,3.76923077 L12.0769231,3.76923077 L12.0769231,10.2307692 L1.92307692,10.2307692 L1.92307692,3.76923077 Z M4.69230769,4.69230769 C3.67908677,4.69230769 2.84615385,5.52524062 2.84615385,6.53846154 C2.84615385,7.55168246 3.67908677,8.38461538 4.69230769,8.38461538 C5.70552862,8.38461538 6.53846154,7.55168246 6.53846154,6.53846154 C6.53846154,5.52524062 5.70552862,4.69230769 4.69230769,4.69230769 Z M4.69230769,5.61538462 L4.69230769,6.53846154 L5.61538462,6.53846154 C5.61538462,7.05408677 5.20793292,7.46153846 4.69230769,7.46153846 C4.17668246,7.46153846 3.76923077,7.05408677 3.76923077,6.53846154 C3.76923077,6.02283631 4.17668246,5.61538462 4.69230769,5.61538462 Z M7.46153846,5.61538462 L7.46153846,6.53846154 L11.1538462,6.53846154 L11.1538462,5.61538462 L7.46153846,5.61538462 Z M7.46153846,7.46153846 L7.46153846,8.38461538 L10.2307692,8.38461538 L10.2307692,7.46153846 L7.46153846,7.46153846 Z" id="Shape" fill="#000000" fill-rule="nonzero"></path>
    </g>
</svg>