<svg width="16" height="16" viewBox="0 0 16 16" fill="none" xmlns="http://www.w3.org/2000/svg">
<path d="M2.5 2C1.67747 2 1 2.67747 1 3.5V4V4.5V12.5C1 13.3225 1.67747 14 2.5 14H13.5C14.3225 14 15 13.3225 15 12.5V5.5C15 4.67747 14.3225 4 13.5 4H6.79883L6.14453 2.78711C5.88359 2.30272 5.37519 2 4.82422 2H2.5ZM2.5 3H4.82422C5.00925 3 5.17661 3.10011 5.26367 3.26172L5.66211 4H2V3.5C2 3.21853 2.21853 3 2.5 3ZM2 5H13.5C13.7815 5 14 5.21853 14 5.5V12.5C14 12.7815 13.7815 13 13.5 13H2.5C2.21853 13 2 12.7815 2 12.5V5ZM4.66016 6.64648L3.95312 7.35352L5.59961 9L3.95312 10.6465L4.66016 11.3535L7.01367 9L4.66016 6.64648ZM8 10V11H12V10H8Z" fill="black"/>
</svg>
