<?xml version="1.0" encoding="UTF-8"?>
<svg width="14px" height="14px" viewBox="0 0 14 14" version="1.1" xmlns="http://www.w3.org/2000/svg" xmlns:xlink="http://www.w3.org/1999/xlink">
    <title>Icon/report</title>
    <g id="Icon/report" stroke="none" stroke-width="1" fill="none" fill-rule="evenodd">
        <path d="M1.5,2 C0.675781,2 0,2.675781 0,3.5 L0,10.5 C0,11.324219 0.675781,12 1.5,12 L12.5,12 C13.324219,12 14,11.324219 14,10.5 L14,3.5 C14,2.675781 13.324219,2 12.5,2 L1.5,2 Z M1.5,3 L12.5,3 C12.78125,3 13,3.21875 13,3.5 L13,10.5 C13,10.78125 12.78125,11 12.5,11 L11,11 L8,11 L1.5,11 C1.21875,11 1,10.78125 1,10.5 L1,3.5 C1,3.21875 1.21875,3 1.5,3 Z M10.28125,5.015625 L7.484375,7.695313 L5.488281,5.949219 L3.03125,8.261719 L3.71875,8.988281 L5.511719,7.300781 L7.515625,9.050781 L10.96875,5.734375 L10.28125,5.015625 Z" id="Shape" fill="#000000" fill-rule="nonzero"></path>
    </g>
</svg>