<?xml version="1.0" encoding="UTF-8"?>
<svg width="14px" height="14px" viewBox="0 0 14 14" version="1.1" xmlns="http://www.w3.org/2000/svg" xmlns:xlink="http://www.w3.org/1999/xlink">
    <title>Icon/search</title>
    <g id="Icon/search" stroke="none" stroke-width="1" fill="none" fill-rule="evenodd">
        <path d="M8.476562,1 C5.996093,1 3.976562,3.019531 3.976562,5.5 C3.976562,6.558594 4.359375,7.523438 4.976562,8.292969 L1,12.269531 L1.703125,12.980469 L5.683593,9 C6.453125,9.617188 7.417968,10 8.476562,10 C10.957031,10 12.976562,7.980469 12.976562,5.5 C12.976562,3.019531 10.957031,1 8.476562,1 Z M8.476562,2 C10.414062,2 11.976562,3.5625 11.976562,5.5 C11.976562,7.4375 10.414062,9 8.476562,9 C6.539062,9 4.976562,7.4375 4.976562,5.5 C4.976562,3.5625 6.539062,2 8.476562,2 Z" id="Shape" fill="#000000" fill-rule="nonzero" transform="translate(6.988281, 6.990235) scale(-1, 1) translate(-6.988281, -6.990235) "></path>
    </g>
</svg>