<?xml version="1.0" encoding="UTF-8"?>
<svg width="14px" height="14px" viewBox="0 0 14 14" version="1.1" xmlns="http://www.w3.org/2000/svg" xmlns:xlink="http://www.w3.org/1999/xlink">
    <title>Icon/thesis</title>
    <g id="Icon/thesis" stroke="none" stroke-width="1" fill="none" fill-rule="evenodd">
        <path d="M7,2 L0,4.80273438 L0,11.6591793 L0.875,11.6591793 L0.875,6.04003863 L2.625,6.655273 L2.625,10.374023 L2.8369145,10.5039063 C2.8369145,10.5039063 4.7338865,11.6591793 7,11.6591793 C9.2661135,11.6591793 11.1630864,10.5039063 11.1630864,10.5039063 L11.375,10.374023 L11.375,6.655273 L14,5.73583963 L14,4.80273438 L7,2 Z M7,2.94335938 L12.7558594,5.24365213 L7,7.2568355 L1.24414062,5.24365213 L7,2.94335938 Z M3.5,6.959472 L7,8.186523 L7.14355513,8.13525325 L10.5,6.96289063 L10.5,9.84765625 C10.2128906,10.0083001 8.77734375,10.7841793 7,10.7841793 C5.22265625,10.7841793 3.78710938,10.0083001 3.5,9.84765625 L3.5,6.959472 Z" id="Shape" fill="#000000" fill-rule="nonzero"></path>
    </g>
</svg>