<?xml version="1.0" encoding="UTF-8"?>
<svg width="14px" height="14px" viewBox="0 0 14 14" version="1.1" xmlns="http://www.w3.org/2000/svg" xmlns:xlink="http://www.w3.org/1999/xlink">
    <title>Icon/webpage</title>
    <g id="Icon/webpage" stroke="none" stroke-width="1" fill="none" fill-rule="evenodd">
        <path d="M1.5,1 C0.6774686,1 0,1.6774686 0,2.5 L0,11.5 C0,12.322531 0.6774686,13 1.5,13 L12.5,13 C13.322531,13 14,12.322531 14,11.5 L14,2.5 C14,1.6774686 13.322531,1 12.5,1 L1.5,1 Z M1.5,2 L12.5,2 C12.781469,2 13,2.2185314 13,2.5 L13,3 L1,3 L1,2.5 C1,2.2185314 1.2185314,2 1.5,2 Z M1,4 L13,4 L13,11.5 C13,11.781469 12.781469,12 12.5,12 L1.5,12 C1.2185314,12 1,11.781469 1,11.5 L1,4 Z M2.5,6 C2.22386906,6 2,6.22386906 2,6.5 L2,10.5 C2,10.7761309 2.22386906,11 2.5,11 L5.5,11 C5.77613094,11 6,10.7761309 6,10.5 L6,6.5 C6,6.22386906 5.77613094,6 5.5,6 L2.5,6 Z M7,6 L7,7 L12,7 L12,6 L7,6 Z M3,7 L5,7 L5,10 L3,10 L3,7 Z M7,8 L7,9 L12,9 L12,8 L7,8 Z M7,10 L7,11 L12,11 L12,10 L7,10 Z" id="Shape" fill="#000000" fill-rule="nonzero"></path>
    </g>
</svg>