<svg width="106" height="106" viewBox="0 0 106 106" fill="none" xmlns="http://www.w3.org/2000/svg">
<rect x="89" y="89" width="12" height="12" fill="#6473FA" stroke="#FFFBED" stroke-width="10"/>
<rect x="77" y="89" width="12" height="12" fill="#6473FA" stroke="#FFFBED" stroke-width="10"/>
<rect x="53" y="89" width="12" height="12" fill="#6473FA" stroke="#FFFBED" stroke-width="10"/>
<rect x="41" y="89" width="12" height="12" fill="#6473FA" stroke="#FFFBED" stroke-width="10"/>
<rect x="29" y="89" width="12" height="12" fill="#6473FA" stroke="#FFFBED" stroke-width="10"/>
<rect x="17" y="89" width="12" height="12" fill="#6473FA" stroke="#FFFBED" stroke-width="10"/>
<rect x="5" y="89" width="12" height="12" fill="#6473FA" stroke="#FFFBED" stroke-width="10"/>
<rect x="89" y="77" width="12" height="12" fill="#6473FA" stroke="#FFFBED" stroke-width="10"/>
<rect x="77" y="77" width="12" height="12" fill="#6473FA" stroke="#FFFBED" stroke-width="10"/>
<rect x="65" y="77" width="12" height="12" fill="#6473FA" stroke="#FFFBED" stroke-width="10"/>
<rect x="41" y="77" width="12" height="12" fill="#6473FA" stroke="#FFFBED" stroke-width="10"/>
<rect x="29" y="77" width="12" height="12" fill="#6473FA" stroke="#FFFBED" stroke-width="10"/>
<rect x="77" y="65" width="12" height="12" fill="#6473FA" stroke="#FFFBED" stroke-width="10"/>
<rect x="65" y="65" width="12" height="12" fill="#6473FA" stroke="#FFFBED" stroke-width="10"/>
<rect x="53" y="65" width="12" height="12" fill="#6473FA" stroke="#FFFBED" stroke-width="10"/>
<rect x="17" y="65" width="12" height="12" fill="#6473FA" stroke="#FFFBED" stroke-width="10"/>
<rect x="5" y="65" width="12" height="12" fill="#6473FA" stroke="#FFFBED" stroke-width="10"/>
<rect x="89" y="53" width="12" height="12" fill="#6473FA" stroke="#FFFBED" stroke-width="10"/>
<rect x="77" y="53" width="12" height="12" fill="#6473FA" stroke="#FFFBED" stroke-width="10"/>
<rect x="65" y="53" width="12" height="12" fill="#6473FA" stroke="#FFFBED" stroke-width="10"/>
<rect x="53" y="53" width="12" height="12" fill="#6473FA" stroke="#FFFBED" stroke-width="10"/>
<rect x="41" y="53" width="12" height="12" fill="#6473FA" stroke="#FFFBED" stroke-width="10"/>
<rect x="29" y="53" width="12" height="12" fill="#6473FA" stroke="#FFFBED" stroke-width="10"/>
<rect x="17" y="53" width="12" height="12" fill="#6473FA" stroke="#FFFBED" stroke-width="10"/>
<rect x="5" y="53" width="12" height="12" fill="#6473FA" stroke="#FFFBED" stroke-width="10"/>
<rect x="89" y="41" width="12" height="12" fill="#6473FA" stroke="#FFFBED" stroke-width="10"/>
<rect x="65" y="41" width="12" height="12" fill="#6473FA" stroke="#FFFBED" stroke-width="10"/>
<rect x="41" y="41" width="12" height="12" fill="#6473FA" stroke="#FFFBED" stroke-width="10"/>
<rect x="17" y="41" width="12" height="12" fill="#6473FA" stroke="#FFFBED" stroke-width="10"/>
<rect x="5" y="41" width="12" height="12" fill="#6473FA" stroke="#FFFBED" stroke-width="10"/>
<rect x="89" y="29" width="12" height="12" fill="#6473FA" stroke="#FFFBED" stroke-width="10"/>
<rect x="77" y="29" width="12" height="12" fill="#6473FA" stroke="#FFFBED" stroke-width="10"/>
<rect x="65" y="29" width="12" height="12" fill="#6473FA" stroke="#FFFBED" stroke-width="10"/>
<rect x="53" y="29" width="12" height="12" fill="#6473FA" stroke="#FFFBED" stroke-width="10"/>
<rect x="29" y="29" width="12" height="12" fill="#6473FA" stroke="#FFFBED" stroke-width="10"/>
<rect x="17" y="29" width="12" height="12" fill="#6473FA" stroke="#FFFBED" stroke-width="10"/>
<rect x="77" y="17" width="12" height="12" fill="#6473FA" stroke="#FFFBED" stroke-width="10"/>
<rect x="65" y="17" width="12" height="12" fill="#6473FA" stroke="#FFFBED" stroke-width="10"/>
<rect x="53" y="17" width="12" height="12" fill="#6473FA" stroke="#FFFBED" stroke-width="10"/>
<rect x="41" y="17" width="12" height="12" fill="#6473FA" stroke="#FFFBED" stroke-width="10"/>
<rect x="29" y="17" width="12" height="12" fill="#6473FA" stroke="#FFFBED" stroke-width="10"/>
<rect x="17" y="17" width="12" height="12" fill="#6473FA" stroke="#FFFBED" stroke-width="10"/>
<rect x="89" y="5" width="12" height="12" fill="#6473FA" stroke="#FFFBED" stroke-width="10"/>
<rect x="77" y="5" width="12" height="12" fill="#6473FA" stroke="#FFFBED" stroke-width="10"/>
<rect x="65" y="5" width="12" height="12" fill="#6473FA" stroke="#FFFBED" stroke-width="10"/>
<rect x="41" y="5" width="12" height="12" fill="#6473FA" stroke="#FFFBED" stroke-width="10"/>
<rect x="29" y="5" width="12" height="12" fill="#6473FA" stroke="#FFFBED" stroke-width="10"/>
<rect x="17" y="5" width="12" height="12" fill="#6473FA" stroke="#FFFBED" stroke-width="10"/>
<rect x="5" y="5" width="12" height="12" fill="#6473FA" stroke="#FFFBED" stroke-width="10"/>
<rect x="5" y="17" width="12" height="12" fill="#6473FA" stroke="#FFFBED" stroke-width="9"/>
<rect x="5" y="29" width="12" height="12" fill="#6473FA" stroke="#FFFBED" stroke-width="8"/>
<rect x="53" y="5" width="12" height="12" fill="#6473FA" stroke="#FFFBED" stroke-width="4"/>
<rect x="53" y="41" width="12" height="12" fill="#6473FA" stroke="#FFFBED" stroke-width="8"/>
<rect x="77" y="41" width="12" height="12" fill="#6473FA" stroke="#FFFBED" stroke-width="8"/>
<rect x="29" y="65" width="12" height="12" fill="#6473FA" stroke="#FFFBED" stroke-width="9"/>
<rect x="41" y="65" width="12" height="12" fill="#6473FA" stroke="#FFFBED" stroke-width="9"/>
<rect x="89" y="17" width="12" height="12" fill="#6473FA" stroke="#FFFBED" stroke-width="6"/>
<rect x="29" y="41" width="12" height="12" fill="#6473FA" stroke="#FFFBED" stroke-width="8"/>
<rect x="65" y="89" width="12" height="12" fill="#6473FA" stroke="#FFFBED" stroke-width="8"/>
<rect x="53" y="77" width="12" height="12" fill="#6473FA" stroke="#FFFBED" stroke-width="4"/>
<rect x="41" y="29" width="12" height="12" fill="#6473FA" stroke="#FFFBED" stroke-width="6"/>
<rect x="89" y="65" width="12" height="12" fill="#6473FA" stroke="#FFFBED" stroke-width="9"/>
<rect x="5" y="77" width="12" height="12" fill="#6473FA" stroke="#FFFBED" stroke-width="9"/>
<rect x="17" y="77" width="12" height="12" fill="#6473FA" stroke="#FFFBED" stroke-width="6"/>
<path d="M0.75 0.75H105.25V105.25H0.75V0.75Z" stroke="#FFFBED" stroke-width="1.5"/>
<path d="M0.5 0.5H105.5V105.5H0.5V0.5Z" stroke="#9CA5FC"/>
<mask id="mask0_0:4522" style="mask-type:alpha" maskUnits="userSpaceOnUse" x="0" y="0" width="106" height="106">
<path d="M0.5 0.5H105.5V105.5H0.5V0.5Z" fill="white" stroke="white"/>
</mask>
<g mask="url(#mask0_0:4522)">
</g>
</svg>
