<?xml version="1.0" encoding="UTF-8"?>
<svg width="199px" height="19px" viewBox="0 0 199 19" version="1.1" xmlns="http://www.w3.org/2000/svg" xmlns:xlink="http://www.w3.org/1999/xlink">
    <!-- Generator: Sketch 49 (51002) - http://www.bohemiancoding.com/sketch -->
    <title>Group 39 Copy</title>
    <desc>Created with Sketch.</desc>
    <defs></defs>
    <g id="Papers" stroke="none" stroke-width="1" fill="none" fill-rule="evenodd" stroke-linecap="round">
        <g id="papers-mobile-3" transform="translate(-88.000000, -207.000000)" stroke="#6473FA" stroke-width="3">
            <g id="Group-39-Copy" transform="translate(89.000000, 209.000000)">
                <path d="M196,3 L196,13.9021869" id="Line-Copy-31"></path>
                <path d="M189,11 L189,13.9155251" id="Line-Copy-30"></path>
                <path d="M182,5 L182,14.9006177" id="Line-Copy-29"></path>
                <path d="M176,7 L176,13.9014459" id="Line-Copy-28"></path>
                <path d="M169,13 L169,13.9155251" id="Line-Copy-27"></path>
                <path d="M162,1 L162,13.9045066" id="Line-Copy-26"></path>
                <path d="M155,11 L155,13.9155251" id="Line-Copy-25"></path>
                <path d="M148,1 L148,13.9045066" id="Line-Copy-24"></path>
                <path d="M141.5,0.28 L141.5,13.9053881" id="Line-Copy-23"></path>
                <path d="M136,12 L136,14.8986301" id="Line-Copy-22"></path>
                <path d="M129,2.57673388 L129,14.900166" id="Line-Copy-21"></path>
                <path d="M122,10.5227849 L122,13.9034572" id="Line-Copy-20"></path>
                <path d="M115,6.54919487 L115,13.9034572" id="Line-Copy-19"></path>
                <path d="M109,11 L109,13.9155251" id="Line-Copy-18"></path>
                <path d="M102,4 L102,13.906139" id="Line-Copy-17"></path>
                <path d="M95,9.52022766 L95,13.906139" id="Line-Copy-16"></path>
                <path d="M88,2.5570303 L88,13.9034572" id="Line-Copy-15"></path>
                <path d="M82,14.3333333 L82,14.2207001" id="Line-Copy-14"></path>
                <path d="M75,13 L75,13.9155251" id="Line-Copy-13"></path>
                <path d="M68.5,0.28 L68.5,13.9053881" id="Line-Copy-12"></path>
                <path d="M61,5 L61,13.9049657" id="Line-Copy-11"></path>
                <path d="M55,2 L55,14.900166" id="Line-Copy-10"></path>
                <path d="M48,1 L48,13.9045066" id="Line-Copy-9"></path>
                <path d="M41,3 L41,14.8986301" id="Line-Copy-8"></path>
                <path d="M34,13.6666667 L34,14.2207001" id="Line-Copy-7"></path>
                <path d="M28,7 L28,13.909027" id="Line-Copy-6"></path>
                <path d="M21.5,0.28 L21.5,13.9053881" id="Line-Copy-5"></path>
                <path d="M15,9 L15,13.906139" id="Line-Copy-4"></path>
                <path d="M8,4 L8,13.906139" id="Line-Copy-3"></path>
                <path d="M1,7.51574575 L1,13.909027" id="Line-Copy-2"></path>
            </g>
        </g>
    </g>
</svg>