<svg width="105" height="105" viewBox="0 0 105 105" fill="none" xmlns="http://www.w3.org/2000/svg">
<rect width="105" height="105" fill="#FFFBED"/>
<path d="M26.5775 53.483H77.8982" stroke="#BFC5FD" stroke-width="1.5"/>
<path d="M52.231 79.1364V27.8157" stroke="#BFC5FD" stroke-width="1.5"/>
<mask id="mask0_0:4480" style="mask-type:alpha" maskUnits="userSpaceOnUse" x="0" y="0" width="105" height="105">
<path fill-rule="evenodd" clip-rule="evenodd" d="M0 0H105V105H0V0Z" fill="white"/>
</mask>
<g mask="url(#mask0_0:4480)">
<ellipse cx="76.22" cy="10.4375" rx="9.95343" ry="10" stroke="#6473FA"/>
<ellipse cx="98.4493" cy="66.4375" rx="8.95808" ry="9" stroke="#6473FA"/>
<ellipse cx="57.8061" cy="94.6042" rx="7.79685" ry="7.83333" stroke="#6473FA"/>
<ellipse cx="34.7476" cy="39.4375" rx="8.95808" ry="9" stroke="#6473FA"/>
<ellipse cx="69.7476" cy="36.4375" rx="8.95808" ry="9" fill="#6473FA" stroke="#6473FA"/>
<ellipse cx="7.04387" cy="52.6042" rx="10.4511" ry="10.5" stroke="#6473FA"/>
<ellipse cx="20.3196" cy="83.2708" rx="5.47438" ry="5.5" stroke="#6473FA"/>
<ellipse cx="83.6328" cy="17.6042" rx="7.79685" ry="7.83333" stroke="#6473FA"/>
<ellipse cx="19.7474" cy="15.4375" rx="5.97206" ry="6" stroke="#6473FA"/>
<ellipse cx="53.8061" cy="66.6042" rx="10.4511" ry="10.5" stroke="#6473FA"/>
<ellipse cx="39.8061" cy="67.6042" rx="7.79685" ry="7.83333" stroke="#6473FA"/>
<ellipse cx="75.5565" cy="82.7708" rx="6.63562" ry="6.66667" stroke="#6473FA"/>
</g>
<path d="M0.5 0.5H104.5V104.5H0.5V0.5Z" stroke="#9CA5FC"/>
<mask id="mask1_0:4480" style="mask-type:alpha" maskUnits="userSpaceOnUse" x="0" y="0" width="105" height="105">
<path d="M0.5 0.5H104.5V104.5H0.5V0.5Z" fill="white" stroke="white"/>
</mask>
<g mask="url(#mask1_0:4480)">
</g>
</svg>
